HIERARCHY
ROOT Hips
{
	OFFSET	0.00	0.00	0.00
	CHANNELS 6 Xposition Yposition Zposition Zrotation Xrotation Yrotation
	JOINT LeftUpLeg
	{
		OFFSET	 0.126116	-0.014019	-0.065224
		CHANNELS 3 Zrotation Xrotation Yrotation
		JOINT LeftLeg
		{
			OFFSET	 0.000000	 0.000000	 0.569914
			CHANNELS 3 Zrotation Xrotation Yrotation
			JOINT LeftFoot
			{
				OFFSET	 0.000000	 0.000000	 0.544423
				CHANNELS 3 Zrotation Xrotation Yrotation
				JOINT LeftToeBase
				{
					OFFSET	 0.000000	 0.000000	 0.207117
					CHANNELS 3 Zrotation Xrotation Yrotation
					End Site
					{
						OFFSET	 0.000000	 0.000000	 0.207117
					}
				}
			}
		}
	}
	JOINT RightUpLeg
	{
		OFFSET	-0.124023	-0.008373	-0.065224
		CHANNELS 3 Zrotation Xrotation Yrotation
		JOINT RightLeg
		{
			OFFSET	 0.000000	 0.000000	 0.570047
			CHANNELS 3 Zrotation Xrotation Yrotation
			JOINT RightFoot
			{
				OFFSET	 0.000000	 0.000000	 0.544354
				CHANNELS 3 Zrotation Xrotation Yrotation
				JOINT RightToeBase
				{
					OFFSET	 0.000000	 0.000000	 0.207540
					CHANNELS 3 Zrotation Xrotation Yrotation
					End Site
					{
						OFFSET	 0.000000	 0.000000	 0.207540
					}
				}
			}
		}
	}
	JOINT Spine
	{
		OFFSET	 0.000184	-0.007763	 0.117403
		CHANNELS 3 Zrotation Xrotation Yrotation
		JOINT Spine1
		{
			OFFSET	 0.000000	 0.000000	 0.137269
			CHANNELS 3 Zrotation Xrotation Yrotation
			JOINT Spine2
			{
				OFFSET	 0.000000	 0.000000	 0.156879
				CHANNELS 3 Zrotation Xrotation Yrotation
				JOINT LeftShoulder
				{
					OFFSET	 0.080501	-0.002496	 0.160144
					CHANNELS 3 Zrotation Xrotation Yrotation
					JOINT LeftArm
					{
						OFFSET	 0.000000	 0.000000	 0.164363
						CHANNELS 3 Zrotation Xrotation Yrotation
						JOINT LeftForeArm
						{
							OFFSET	 0.000000	 0.000000	 0.364576
							CHANNELS 3 Zrotation Xrotation Yrotation
							JOINT LeftHand
							{
								OFFSET	 0.000000	 0.000000	 0.360812
								CHANNELS 3 Zrotation Xrotation Yrotation
								JOINT LeftHandIndex1
								{
									OFFSET	 0.000000	 0.000000	 0.086006
									CHANNELS 3 Zrotation Xrotation Yrotation
									JOINT LeftHandIndex2
									{
										OFFSET	 0.000000	 0.000000	 0.047237
										CHANNELS 3 Zrotation Xrotation Yrotation
										JOINT LeftHandIndex3
										{
											OFFSET	-0.004284	-0.000551	 0.038165
											CHANNELS 3 Zrotation Xrotation Yrotation
											End Site
											{
												OFFSET	-0.004284	-0.000551	 0.038165
											}
										}
									}
								}
							}
						}
					}
				}
				JOINT Neck
				{
					OFFSET	 0.000000	 0.000000	 0.176489
					CHANNELS 3 Zrotation Xrotation Yrotation
					JOINT Head
					{
						OFFSET	 0.000000	-0.001747	 0.077940
						CHANNELS 3 Zrotation Xrotation Yrotation
						End Site
						{
							OFFSET	 0.000000	-0.001747	 0.077940
						}
					}
				}
				JOINT RightShoulder
				{
					OFFSET	-0.080363	 0.000306	 0.159706
					CHANNELS 3 Zrotation Xrotation Yrotation
					JOINT RightArm
					{
						OFFSET	 0.000000	 0.000000	 0.164196
						CHANNELS 3 Zrotation Xrotation Yrotation
						JOINT RightForeArm
						{
							OFFSET	 0.000000	 0.000000	 0.365611
							CHANNELS 3 Zrotation Xrotation Yrotation
							JOINT RightHand
							{
								OFFSET	 0.000000	 0.000000	 0.360648
								CHANNELS 3 Zrotation Xrotation Yrotation
								JOINT RightHandIndex1
								{
									OFFSET	 0.000000	 0.000000	 0.069977
									CHANNELS 3 Zrotation Xrotation Yrotation
									JOINT RightHandIndex2
									{
										OFFSET	 0.000000	 0.000000	 0.052305
										CHANNELS 3 Zrotation Xrotation Yrotation
										JOINT RightHandIndex3
										{
											OFFSET	 0.009002	-0.000782	 0.042196
											CHANNELS 3 Zrotation Xrotation Yrotation
											End Site
											{
												OFFSET	 0.009002	-0.000782	 0.042196
											}
										}
									}
								}
							}
						}
					}
				}
			}
		}
	}
}
MOTION
Frames:    8
Frame Time: 0.03333334
-0.455681	-0.032918	 1.274119	 179.472900	-1.050646	 2.702996	-19.952530	-1.898512	-178.369900	 0.458976	-14.098510	-0.024954	-9.398011	 72.534390	-8.314383	-2.385833	 28.452760	 0.000004	 37.577130	-2.962643	 173.485600	-2.247015	-8.200016	-0.538426	 14.744350	 67.264280	 4.309135	 2.384659	 28.388700	-0.000001	-8.204716	 6.296883	-2.181469	-2.364576	-2.300934	-11.614120	 9.818586	 7.195248	 15.900790	-91.776210	 78.527400	-180.000000	-31.275660	-11.178200	-6.945457	 3.929471	-2.278061	-20.987780	-2.396183	-18.904410	-3.507042	-4.130319	 21.525730	 0.991547	-5.167930	 0.731704	 3.519349	-1.378229	 35.397820	-2.634230	-1.141426	-1.927139	 0.537912	-8.405312	-17.041290	-5.063419	 89.782120	 78.203890	 180.000000	-8.320023	-9.963619	-7.054557	-13.004220	-4.381074	 32.066340	 14.431310	 6.899779	 69.668080	 5.716227	 19.173190	-3.685159	 5.027444	 0.246877	-9.377972	-2.350882	 35.473990	 5.254307
-0.456006	-0.032928	 1.274232	 179.479100	-1.472273	 2.916380	-16.426330	-1.509947	-178.744700	-1.192756	-14.491950	-0.439107	-4.378682	 72.997590	-12.084750	-2.385833	 28.452760	 0.000004	 38.078860	-2.520770	 173.051600	-1.244687	-7.678027	-0.370016	 11.488240	 66.565560	 6.771772	 2.384659	 28.388700	-0.000001	-7.895667	 6.662394	-2.654634	-2.320160	-1.154925	-11.442950	 9.895646	 5.287656	 16.402810	-91.776180	 78.527400	-180.000000	-37.013810	-9.271338	-7.297311	 3.309818	-2.231164	-22.781510	-1.901923	-20.088850	-3.110797	-4.130319	 21.525730	 0.991547	-5.167930	 0.731704	 3.519349	-1.378229	 35.397820	-2.634230	-1.441819	-1.447948	 0.713404	-8.811531	-19.082110	-6.313323	 89.782060	 78.203870	-180.000000	-9.614762	-9.772760	-7.845321	-13.458360	-4.944689	 33.548770	 14.895600	 11.488790	 79.755950	 5.716227	 19.173190	-3.685159	 5.027444	 0.246877	-9.377972	-2.350882	 35.473990	 5.254307
-0.457221	-0.033041	 1.274681	 179.539500	-2.990479	 3.804083	-3.498288	-0.777341	 179.254900	-7.219775	-16.692160	-2.247676	 19.907410	 74.496930	-32.286620	-2.385833	 28.452760	 0.000004	 39.698270	-1.916033	 171.462700	 2.192705	-7.680007	 0.089549	-2.381528	 64.172890	 18.476990	 2.384659	 28.388700	-0.000001	-6.701046	 7.913586	-4.618345	-2.433540	 3.257169	-10.724270	 10.429130	-1.956881	 18.215010	-91.776230	 78.527360	-180.000000	-65.363950	 2.465752	-3.217184	 1.031707	-2.235465	-36.496040	-0.355361	-23.309370	-1.813982	-4.130319	 21.525730	 0.991547	-5.167930	 0.731704	 3.519349	-1.378229	 35.397820	-2.634230	-2.635559	 0.418271	 1.500121	-10.937690	-26.826940	-11.681910	 89.782010	 78.203890	-179.999900	-10.581400	-8.518843	-12.130000	-14.415990	-8.227142	 44.225540	 14.442520	 30.738300	 117.020400	 5.716227	 19.173190	-3.685159	 5.027444	 0.246877	-9.377972	-2.350882	 35.473990	 5.254307
-0.457646	-0.033274	 1.274451	 179.673100	-3.127715	 4.339651	-0.886453	-2.035833	 178.448000	-8.675598	-19.698640	-3.137680	 24.496290	 76.131450	-35.859460	-2.385833	 28.452760	 0.000004	 39.260250	-3.296637	 171.198200	 2.922019	-10.487510	 0.254765	-5.414613	 64.627270	 21.150670	 2.384659	 28.388700	-0.000001	-6.636129	 7.994494	-5.310380	-2.601093	 4.372250	-10.989850	 10.562080	-3.550297	 18.896350	-91.776190	 78.527400	-180.000000	-71.095080	 6.642223	 5.448537	-0.120774	-2.501937	-53.273590	-0.761673	-22.587730	-2.081417	-4.130319	 21.525730	 0.991547	-5.167930	 0.731704	 3.519349	-1.378229	 35.397820	-2.634230	-2.951826	 0.906061	 1.877373	-11.744350	-28.533810	-13.360110	 89.782150	 78.203830	 180.000000	-10.097040	-7.934646	-16.543470	-12.438240	-10.346690	 58.070630	 16.004700	 32.743680	 118.702000	 5.716227	 19.173190	-3.685159	 5.027444	 0.246877	-9.377972	-2.350882	 35.473990	 5.254307
-0.458062	-0.033605	 1.273826	 179.808900	-3.154766	 4.714862	 0.719575	-3.499747	 177.959500	-9.824697	-22.996150	-4.095588	 29.637800	 77.917160	-40.352140	-2.385833	 28.452760	 0.000004	 38.732990	-5.119653	 171.245400	 3.474621	-14.417480	 0.486187	-7.671494	 66.057010	 23.150620	 2.384659	 28.388700	-0.000001	-6.777423	 7.971537	-5.813556	-2.874241	 5.299130	-11.178900	 10.702280	-4.722768	 19.404270	-91.776110	 78.527400	 179.999900	-74.053700	 10.908340	 15.052330	-1.126212	-2.554567	-71.387860	-1.173249	-22.173020	-2.229368	-4.130319	 21.525730	 0.991547	-5.167930	 0.731704	 3.519349	-1.378229	 35.397820	-2.634230	-3.176629	 1.243070	 2.175233	-12.354540	-29.688110	-14.668210	 89.782160	 78.203830	 179.999900	-8.430914	-6.352512	-20.200890	-9.436474	-11.931040	 74.037570	 19.348490	 33.849900	 113.061000	 5.716227	 19.173190	-3.685159	 5.027444	 0.246877	-9.377972	-2.350882	 35.473990	 5.254307
-0.458512	-0.034195	 1.272316	-179.954400	-2.878521	 4.675453	-0.420275	-5.542456	 178.388000	-10.051110	-27.409600	-4.929904	 35.038330	 80.443830	-45.970720	-2.385833	 28.452760	 0.000004	 37.918070	-7.762152	 172.105300	 3.597096	-20.568750	 0.729105	-7.357885	 69.798390	 22.612980	 2.384659	 28.388700	-0.000001	-7.550353	 7.625379	-5.772559	-3.385223	 5.817980	-11.310090	 10.795780	-4.811576	 19.568850	-91.776280	 78.527400	-179.999900	-67.845830	 16.047400	 26.144750	-2.265088	-2.842744	-95.605830	-1.025385	-22.672680	-2.230117	-4.130319	 21.525730	 0.991547	-5.167930	 0.731704	 3.519349	-1.378229	 35.397820	-2.634230	-3.148986	 1.177529	 2.302403	-12.298980	-29.383130	-15.000800	 89.782150	 78.203850	 180.000000	-4.260265	-0.972340	-21.591760	-4.891900	-12.026840	 95.552100	 25.582640	 31.284320	 87.410620	 5.716227	 19.173190	-3.685159	 5.027444	 0.246877	-9.377972	-2.350882	 35.473990	 5.254307
-0.459017	-0.034844	 1.270539	-179.748000	-2.598445	 4.629201	-1.245448	-7.427803	 178.819900	-10.427680	-31.570730	-5.805017	 44.409580	 82.647740	-55.511490	-2.385833	 28.452760	 0.000004	 37.350580	-9.859436	 173.052200	 3.748682	-25.650130	 0.963987	-6.632738	 72.999350	 21.616690	 2.384659	 28.388700	-0.000001	-8.332314	 7.279738	-5.745404	-3.950527	 6.387523	-11.402420	 10.885410	-4.951027	 19.712930	-91.776160	 78.527380	 180.000000	-58.280250	 25.306180	 32.192180	-3.241403	-2.680984	-115.100100	-0.939155	-23.077720	-2.231032	-4.130319	 21.525730	 0.991547	-5.167930	 0.731704	 3.519349	-1.378229	 35.397820	-2.634230	-3.123027	 1.085472	 2.331861	-12.243230	-29.122640	-15.125850	 89.782140	 78.203900	 180.000000	-1.298777	 10.178060	-17.065390	-1.786020	-10.904410	 111.521400	 26.752710	 27.472380	 61.871680	 5.716227	 19.173190	-3.685159	 5.027444	 0.246877	-9.377972	-2.350882	 35.473990	 5.254307
-0.459915	-0.035848	 1.267777	-179.406000	-2.211158	 4.505900	-1.941069	-9.778449	 179.479300	-11.346880	-36.884520	-7.213788	 68.022690	 84.675970	-79.194010	-2.385833	 28.452760	 0.000004	 36.728320	-12.202860	 174.549200	 4.087779	-31.761620	 1.350909	-5.325490	 76.912670	 19.874400	 2.384659	 28.388700	-0.000001	-9.508096	 6.850209	-5.637741	-4.775269	 7.132329	-11.522370	 10.947060	-5.121974	 19.884540	-91.776150	 78.527400	 180.000000	-28.633800	 46.234590	 16.973550	-3.893630	-2.276682	-129.974200	-0.949109	-23.420360	-2.242959	-4.130319	 21.525730	 0.991547	-5.167930	 0.731704	 3.519349	-1.378229	 35.397820	-2.634230	-3.077791	 0.807236	 2.052450	-12.135780	-28.748120	-14.652850	 89.782120	 78.203930	 180.000000	-10.233810	 34.697460	 5.026677	-0.844021	-9.349092	 119.297600	 16.425020	 22.094340	 30.710270	 5.716227	 19.173190	-3.685159	 5.027444	 0.246877	-9.377972	-2.350882	 35.473990	 5.254307
